mastitorrents.com
 
http://mastitorrents.com/forums/index.php

!~! MEDIA INFO !~!

Part - 1

General
Complete name : ELECTRONYK PODCAST - EPISODE 4 ( RUNDOWN - PART 1 ) [Pr!T3sH].mp3
Format : MPEG Audio
File size : 34.8 MiB
Duration : 15mn 11s
Overall bit rate : 320 Kbps
Album : [TEAM DUS] ELECTRONYK PODCAST - EPISODE 4 ( RUNDOWN - PART 1 & 2 ) - 2010 [Pr!T3sH]
Track name : EPISODE 4 ( RUNDOWN - PART 1 ) [Pr!T3sH]
Performer : Dj Nyk [Pr!T3sH]
Accompaniment : Dj Nyk [Pr!T3sH]
Recorded date : 2010
Writing library : LAME3.97

Audio
Format : MPEG Audio
Format version : Version 1
Format profile : Layer 3
Mode : Joint stereo
Mode extension : MS Stereo
Duration : 15mn 11s
Bit rate mode : Constant
Bit rate : 320 Kbps
Channel(s) : 2 channels
Sampling rate : 48.0 KHz
Stream size : 34.8 MiB (100%)
Writing library : LAME3.97

Part - 2

General
Complete name : ELECTRONYK PODCAST - EPISODE 4 ( RUNDOWN - PART 2 ) [Pr!T3sH].mp3
Format : MPEG Audio
File size : 29.8 MiB
Duration : 13mn 0s
Overall bit rate : 320 Kbps
Album : [TEAM DUS] ELECTRONYK PODCAST - EPISODE 4 ( RUNDOWN - PART 1 & 2 ) - 2010 [Pr!T3sH]
Track name : EPISODE 4 ( RUNDOWN - PART 2 ) [Pr!T3sH]
Performer : Dj Nyk [Pr!T3sH]
Accompaniment : Dj Nyk [Pr!T3sH]
Recorded date : 2010
Writing library : LAME3.97

Audio
Format : MPEG Audio
Format version : Version 1
Format profile : Layer 3
Mode : Joint stereo
Mode extension : MS Stereo
Duration : 13mn 0s
Bit rate mode : Constant
Bit rate : 320 Kbps
Channel(s) : 2 channels
Sampling rate : 48.0 KHz
Stream size : 29.8 MiB (100%)
Writing library : LAME3.97


ElectroNYK Podcast Episode 4 - RUNDOWN PART - 1

1. Dearam On (Protoculture Remix) - Jason van Wyk [Pr!T3sH]
2. Some Chords (Original Mix) - Deadmau5 [Pr!T3sH]
3. Munni Badnam (Dabbangg)- Tribal Mix (Dj Nyk ft. Dj Harsh) [Pr!T3sH]
4. Gal Mitthey(Aisha) - Dj Piyush Sood & Dj Khushi Remix [Pr!T3sH]
5. Club Cant Handle Me (Scuba Remix) - Flo Rida ft. David Guetta [Pr!T3sH]
6. Niton (Original Mix) - Pryda [Pr!T3sH]
7. David Guetta - Love is Gone (Dj Nyk 2011 Proggy Electro Mix) [Pr!T3sH]
8. Toh Phir Aao (Awarapan) - Nds and Blue Remix [Pr!T3sH]
9. Basanti - Dj Lijo Remix [Pr!T3sH]
10. Tiesto = Love Comes Again (Dj Nyk 2011 Electro Mix) [Pr!T3sH]
11. Pee Lun V/S Go (Dj Nyk Mashup Mix) [Pr!T3sH]
12. Anjaana Anjaani - Title Track (Dj Tejas Remix) [Pr!T3sH]

ElectroNYK Podcast Episode 4 - RUNDOWN PART - 2

1. Hairat (Anjaana Anjaani) - NeilNash Remix [Pr!T3sH]
2. Missing (EBTG) - Dj Nyk ft. Jon Dasz [Pr!T3sH]
3. Vela (Jaytech) - Original Mix [Pr!T3sH]
4. Arrival - Gareth Emery ft. Brute Force [Pr!T3sH]
5. Har Kisiko v/s Aliens & Butterfly - Dj Nyk Mashup Mix [Pr!T3sH]
6. Woh Lamhe v/s Celtic of Scotland - Dj Ravish Mashup Mix [Pr!T3sH]
7. Tujhey Bhula Diya (Anjaana Anjaani) - Dj Nyk Progressive Euro Mix [Pr!T3sH]
8. India (Original Mix) - Snow Flakes [Pr!T3sH]
9. Hey ya v/s Aggressiveness Essence - Dj Ralph Mashup (Electronyk Edit) [Pr!T3sH]
10. We Are One (Giuseppe Ottaviani Remix) - PVD ft. Johnny McDaid [Pr!T3sH]
11. Karunesh - Punjab (Aftermorning Remix) [Pr!T3sH]


SEED 1:1

This is Just a RUNDOWN from Dj Nyk Full Electronyk Podcast Releasing soonnn... 